<?xml version="1.0" standalone="no"?>
<!DOCTYPE svg PUBLIC "-//W3C//DTD SVG 20010904//EN"
 "http://www.w3.org/TR/2001/REC-SVG-20010904/DTD/svg10.dtd">
<svg version="1.0" xmlns="http://www.w3.org/2000/svg"
 width="1617.000000pt" height="1617.000000pt" viewBox="0 0 1617.000000 1617.000000"
 preserveAspectRatio="xMidYMid meet">
<metadata>
Created by potrace 1.11, written by Peter Selinger 2001-2013
</metadata>
<g transform="translate(0.000000,1617.000000) scale(0.100000,-0.100000)"
fill="#000000" stroke="none">
<path d="M7738 16165 c-2 -1 -61 -6 -133 -10 -71 -4 -143 -8 -158 -10 -15 -2
-66 -6 -112 -10 -47 -3 -93 -8 -102 -9 -10 -2 -49 -7 -88 -11 -38 -4 -77 -8
-85 -10 -8 -1 -40 -6 -71 -9 -31 -4 -65 -8 -75 -10 -11 -2 -41 -7 -67 -10 -48
-7 -67 -11 -117 -21 -14 -2 -41 -7 -60 -10 -19 -3 -57 -10 -85 -15 -27 -5 -66
-12 -85 -15 -19 -3 -42 -8 -50 -10 -8 -2 -26 -6 -40 -9 -14 -3 -65 -14 -115
-26 -49 -11 -101 -23 -115 -25 -351 -75 -1048 -315 -1440 -497 -586 -272
-1066 -561 -1570 -943 -103 -78 -376 -303 -455 -375 -166 -152 -218 -201 -355
-339 -133 -133 -254 -263 -394 -421 -127 -143 -519 -651 -534 -690 -3 -8 -8
-17 -12 -20 -12 -9 -126 -183 -219 -335 -50 -82 -96 -157 -101 -165 -10 -16
-77 -136 -142 -255 -40 -71 -228 -452 -228 -460 0 -2 -15 -37 -34 -77 -144
-311 -350 -888 -421 -1185 -3 -10 -18 -72 -35 -138 -34 -136 -30 -120 -64
-280 -26 -122 -61 -307 -71 -380 -4 -22 -11 -69 -16 -105 -10 -64 -13 -84 -23
-165 -14 -106 -35 -307 -41 -380 -27 -339 -27 -1097 0 -1290 2 -16 7 -66 10
-110 3 -44 8 -93 10 -110 2 -16 7 -51 10 -78 9 -84 16 -141 20 -167 2 -14 7
-47 11 -75 6 -48 8 -59 18 -115 3 -14 8 -43 11 -65 21 -157 116 -582 180 -811
197 -701 482 -1365 853 -1984 73 -123 266 -417 336 -515 20 -27 44 -61 54 -75
45 -66 263 -348 307 -396 5 -7 24 -29 42 -50 17 -22 39 -49 50 -60 10 -12 41
-48 68 -79 95 -111 180 -201 360 -380 210 -210 275 -272 460 -430 38 -33 75
-64 81 -70 21 -18 91 -74 180 -145 49 -38 94 -74 101 -79 41 -36 274 -200 408
-290 242 -160 344 -223 530 -327 22 -12 74 -41 115 -64 83 -46 384 -196 498
-248 349 -159 780 -316 1157 -422 83 -24 266 -72 325 -85 54 -13 359 -77 388
-81 19 -3 44 -8 56 -10 61 -12 167 -29 241 -39 11 -2 58 -8 105 -15 108 -15
121 -17 205 -24 39 -4 88 -9 110 -11 39 -5 65 -7 275 -22 132 -9 830 -10 970
0 155 10 263 19 281 22 8 2 55 6 105 10 49 4 91 9 94 10 3 2 35 6 70 10 36 3
88 10 115 15 28 5 68 11 90 14 22 3 81 12 130 21 50 9 103 18 119 21 506 87
1162 286 1701 516 143 61 544 256 670 326 455 251 818 494 1195 798 91 73 177
143 191 156 15 13 41 35 58 50 155 128 553 521 732 723 345 389 623 766 899
1220 46 75 49 80 147 255 58 103 234 454 293 585 58 128 70 157 109 255 23 58
48 119 56 135 7 17 25 66 40 110 16 44 33 91 38 105 6 14 11 27 12 30 1 3 32
100 69 215 37 116 73 230 81 255 15 49 111 430 119 470 2 14 16 84 30 155 14
72 28 144 30 160 12 73 17 101 21 115 2 8 6 38 10 65 3 28 10 77 15 110 15
103 19 128 25 190 4 33 8 71 10 85 2 14 7 63 10 110 4 47 8 96 10 110 26 177
27 1052 0 1290 -2 19 -7 73 -10 120 -4 47 -8 92 -10 100 -2 8 -6 47 -10 85 -4
39 -9 77 -10 86 -2 9 -6 40 -10 70 -6 50 -9 74 -20 139 -2 14 -9 54 -14 90 -6
36 -13 76 -16 90 -3 14 -8 41 -11 60 -54 321 -199 865 -320 1197 -19 54 -42
118 -51 143 -19 56 -136 345 -164 408 -138 307 -265 557 -401 792 -122 211
-116 202 -253 410 -239 362 -481 676 -769 995 -82 91 -440 451 -531 535 -140
128 -445 382 -570 474 -22 17 -42 33 -45 36 -22 26 -528 368 -636 431 -23 13
-93 54 -155 90 -182 106 -204 117 -414 223 -187 95 -233 117 -375 179 -286
127 -600 244 -907 337 -192 58 -447 127 -534 144 -13 2 -55 11 -94 20 -38 9
-81 18 -95 20 -14 3 -59 11 -100 20 -41 8 -88 17 -105 20 -16 3 -70 12 -120
20 -108 18 -166 26 -320 45 -135 17 -207 24 -375 37 -47 3 -98 8 -115 10 -34
5 -842 14 -847 9z m592 -3370 c69 -3 141 -8 160 -9 19 -2 69 -6 110 -10 41 -4
82 -9 90 -11 8 -2 38 -6 65 -10 78 -9 141 -21 385 -70 8 -2 35 -8 60 -15 25
-7 53 -14 63 -15 105 -21 492 -150 615 -205 34 -16 65 -29 67 -30 40 -8 324
-149 470 -233 238 -136 432 -268 650 -444 207 -167 481 -438 662 -658 254
-308 490 -685 648 -1035 31 -69 60 -134 65 -145 64 -142 194 -537 231 -700 6
-27 12 -57 14 -65 11 -47 35 -164 40 -190 24 -139 43 -276 50 -350 4 -41 9
-83 11 -93 7 -39 17 -289 17 -427 0 -216 -14 -428 -39 -610 -6 -45 -33 -217
-39 -250 -3 -14 -8 -38 -11 -55 -42 -228 -137 -553 -236 -805 -65 -167 -87
-215 -189 -415 -325 -640 -789 -1193 -1375 -1637 -57 -44 -343 -237 -394 -267
-409 -239 -785 -398 -1215 -515 -146 -40 -320 -78 -425 -92 -25 -3 -47 -8 -50
-9 -3 -2 -33 -7 -65 -10 -33 -4 -69 -9 -80 -11 -11 -2 -49 -7 -85 -10 -36 -3
-75 -7 -88 -9 -130 -22 -707 -22 -852 0 -14 2 -56 6 -95 10 -83 7 -76 6 -280
40 -88 15 -198 36 -245 47 -47 11 -92 22 -100 24 -106 24 -469 138 -525 163
-11 6 -83 35 -160 67 -170 69 -414 193 -590 298 -967 581 -1696 1487 -2054
2551 -43 128 -106 349 -124 435 -10 49 -37 184 -42 209 -3 14 -7 36 -9 48 -3
11 -8 43 -12 70 -3 26 -8 57 -10 68 -2 11 -7 44 -10 74 -3 30 -7 62 -9 70 -2
9 -6 59 -10 111 -4 52 -9 111 -11 130 -4 46 -4 513 1 565 2 22 6 78 9 125 4
47 8 96 10 110 3 14 7 50 11 81 3 31 7 65 9 75 2 11 7 39 11 64 3 25 9 57 11
72 51 322 183 762 329 1093 51 115 177 361 244 477 72 123 221 348 287 434 21
28 52 68 69 90 139 183 395 457 570 609 37 33 75 67 84 76 58 57 328 260 469
353 439 288 884 487 1392 622 69 19 136 36 150 39 137 28 229 46 250 50 88 15
231 35 300 41 30 3 69 7 85 9 17 2 95 7 175 11 80 3 146 7 147 8 3 3 227 -3
343 -9z"/>
</g>
</svg>
