<svg id="Layer_1" data-name="Layer 1" xmlns="http://www.w3.org/2000/svg" viewBox="0 0 171.37 190.6"><defs><style>.cls-1{fill:#b72025;}.cls-2{fill:#81b9d9;}.cls-3{fill:#5479bc;}.cls-4{fill:#355b7f;}.cls-5{fill:#15a2b0;}.cls-6{fill:#3684b0;}.cls-7{fill:#e61e25;}.cls-8{fill:#7d1416;}.cls-9{fill:#b81f32;}.cls-10{fill:#b83b26;}.cls-11{fill:#b94a43;}.cls-12{fill:#81c6d2;}.cls-13{fill:#4fb9da;}.cls-14{fill:#48b4e7;}.cls-15{fill:#2790b7;}.cls-16{fill:#99d9e5;}.cls-17{fill:#231f20;}</style></defs><title>BorrowLogo Standard</title><path class="cls-1" d="M94.76,244h29.6q17.86,0,27.46,4A33.21,33.21,0,0,1,167,260.39a32.55,32.55,0,0,1,5.56,18.49,31.91,31.91,0,0,1-4.88,17.28,35.42,35.42,0,0,1-14.32,12.63q11.7,3.77,18,8.86a35.67,35.67,0,0,1,9.82,12.29,35.22,35.22,0,0,1,3.51,15.63q0,17.13-13.22,29T136,386.41H94.76V244Z" transform="translate(-50.89 -244.04)"/><path class="cls-2" d="M94.76,364.48l89.93-18.77s0-.09,0-0.13a35.22,35.22,0,0,0-3.51-15.63,35.67,35.67,0,0,0-9.82-12.29q-6.31-5.08-18-8.86a35.42,35.42,0,0,0,14.32-12.63,31.91,31.91,0,0,0,4.88-17.28,33,33,0,0,0-2.21-12.08L94.76,284.86v79.62Z" transform="translate(-50.89 -244.04)"/><path class="cls-3" d="M167,260.39a33.21,33.21,0,0,0-15.16-12.34q-9.6-4-27.46-4H94.76v57.88l77.74-21.3c0-.57,0-1.15,0-1.73A32.55,32.55,0,0,0,167,260.39Z" transform="translate(-50.89 -244.04)"/><polygon class="cls-4" points="43.87 57.88 43.87 0 68.98 0 43.87 57.88"/><polygon class="cls-5" points="121.61 36.58 100.93 4.02 77.84 48.57 121.61 36.58"/><polygon class="cls-6" points="68.98 0 92.08 21.09 43.87 57.88 68.98 0"/><polygon class="cls-1" points="53.12 119.27 92.08 21.09 43.87 57.88 43.87 120.44 53.12 119.27"/><polygon class="cls-1" points="92.08 110.38 69.06 129.29 97.78 141.28 92.08 110.38"/><polygon class="cls-7" points="130.25 117.87 92.08 110.38 133.8 101.53 130.25 117.87"/><polygon class="cls-8" points="43.87 142.38 76.25 60.39 74 142.38 43.87 142.38"/><polygon class="cls-1" points="112.94 135.97 112.94 114.47 92.08 110.38 97.78 141.28 112.94 135.97"/><polygon class="cls-9" points="43.87 142.38 64.12 116.21 43.87 120.44 43.87 142.38"/><polygon class="cls-10" points="69.06 129.29 92.08 110.38 64.12 116.21 69.06 129.29"/><polygon class="cls-11" points="112.94 114.47 112.94 135.97 130.25 117.87 112.94 114.47"/><polygon class="cls-12" points="43.87 57.88 75.44 90 76.25 60.39 43.87 57.88"/><polygon class="cls-13" points="79.36 53.16 90.69 77.28 75.34 93.62 76.25 60.39 79.36 53.16"/><polygon class="cls-6" points="81.58 47.54 79.36 53.16 90.69 77.28 102.45 64.75 81.58 47.54"/><polygon class="cls-14" points="75.34 93.62 90.69 77.28 108.65 106.86 75.34 93.62"/><polygon class="cls-6" points="75.34 93.62 108.65 106.86 74.78 113.99 75.34 93.62"/><path class="cls-15" d="M171.24,317.64q-6.31-5.08-18-8.86l-27.12,28.87Z" transform="translate(-50.89 -244.04)"/><path class="cls-16" d="M159.54,350.9l25.15-5.33a35.22,35.22,0,0,0-3.51-15.63Z" transform="translate(-50.89 -244.04)"/><path class="cls-17" d="M69.82,415.56a5.63,5.63,0,0,1-4.17,5.49,6.56,6.56,0,0,1,5.05,6.44c0,5.27-4.91,6.7-9.3,6.7H50.89V408.57H61.4C65.72,408.57,69.82,410.7,69.82,415.56Zm-16.95,4.61h8.79c3.07,0,6.3-1,6.3-4.61s-3.37-5.31-6.55-5.31H52.87v9.92Zm0,12.12H61.4c3.22,0,7.36-.77,7.36-4.83S65.09,422,61.65,422H52.87v10.25Z" transform="translate(-50.89 -244.04)"/><path class="cls-17" d="M101.84,421.42c0,6.74-4.32,13.21-12.92,13.21S76,428.12,76,421.35s4.28-13.18,12.92-13.18S101.88,414.5,101.84,421.42Zm-23.9,0c0,5.78,3.7,11.42,11,11.42s11-5.64,11-11.42S96.28,410,88.92,410,77.9,415.35,77.94,421.38Z" transform="translate(-50.89 -244.04)"/><path class="cls-17" d="M128.27,434.2h-2.6l-8.86-9.7h-7v9.7h-2V408.57h11.27c5.56,0,8.38,4,8.42,8,0,4.17-2.71,7.83-8.31,7.83Zm-18.45-11.57h9.08c4.47,0,6.44-2.53,6.48-6.11a5.91,5.91,0,0,0-6.26-6.11h-9.3v12.23Z" transform="translate(-50.89 -244.04)"/><path class="cls-17" d="M153.3,434.2h-2.6l-8.86-9.7h-7v9.7h-2V408.57h11.27c5.56,0,8.38,4,8.42,8,0,4.17-2.71,7.83-8.31,7.83Zm-18.45-11.57h9.08c4.47,0,6.44-2.53,6.48-6.11a5.91,5.91,0,0,0-6.26-6.11h-9.3v12.23Z" transform="translate(-50.89 -244.04)"/><path class="cls-17" d="M182.62,421.42c0,6.74-4.32,13.21-12.92,13.21s-12.92-6.52-12.92-13.29,4.28-13.18,12.92-13.18S182.66,414.5,182.62,421.42Zm-23.9,0c0,5.78,3.7,11.42,11,11.42s11-5.64,11-11.42S177.06,410,169.7,410,158.68,415.35,158.72,421.38Z" transform="translate(-50.89 -244.04)"/><path class="cls-17" d="M203.26,408.57h1.1L212.19,432l7.94-23.43h2.12l-9,25.7h-2.12l-4.06-12-3.22-10.14-3.22,10.07-4.1,12.08h-2.12l-9-25.7h2.09L195.39,432Z" transform="translate(-50.89 -244.04)"/></svg>